# xmcd
#
# Track frame offsets:
#	150
#	16785
#	30291
#	52241
#	74458
#	90452
#	107589
#	128501
#	152005
#	165685
#	193115
#	207919
#	239166
#
# Disc length: 3323 seconds
#
# Revision: 1
# Processed by: cddbd v1.5.1PL0 Copyright (c) Steve Scherf et al.
# Submitted via: audiograbber 1.83.01
#
DISCID=a90cf90d
DTITLE=The Elcan Boys - lemonade
DYEAR=00
DGENRE=Indie
TTITLE0=a tallahassee saturday night love story
TTITLE1=over you
TTITLE2=strange coincidence
TTITLE3=maybe i'm wrong
TTITLE4=thunderbird 2000
TTITLE5=again
TTITLE6=untitled(the jazz classic)
TTITLE7=the cabin song
TTITLE8=hot dog water
TTITLE9=I know she's waiting
TTITLE10=feeling is gone
TTITLE11=blind man
TTITLE12=unnamed
EXTD=
EXTT0=
EXTT1=
EXTT2=
EXTT3=
EXTT4=
EXTT5=
EXTT6=
EXTT7=
EXTT8=
EXTT9=
EXTT10=
EXTT11=
EXTT12=
PLAYORDER=
